<?xml version="1.0" encoding="utf-8"?>
<!-- Generator: Adobe Illustrator 25.4.1, SVG Export Plug-In . SVG Version: 6.00 Build 0)  -->
<svg version="1.1" id="Layer_1" xmlns="http://www.w3.org/2000/svg" xmlns:xlink="http://www.w3.org/1999/xlink" x="0px" y="0px"
	 viewBox="0 0 3837 2288.3" style="enable-background:new 0 0 3837 2288.3;" xml:space="preserve">
<style type="text/css">
	.st0{fill-rule:evenodd;clip-rule:evenodd;fill:#FCFCFC;}
	.st1{fill-rule:evenodd;clip-rule:evenodd;fill:#6C2C74;}
	.st2{fill-rule:evenodd;clip-rule:evenodd;fill:#64456C;}
	.st3{fill-rule:evenodd;clip-rule:evenodd;fill:#6C3C74;}
</style>
<g>
	<path class="st0" d="M295.1,368.8l1.6-62.6c0.9-34.4,1.6-90.9,1.6-125.6v-63h1619.8H3538l-0.6,299.7l-0.6,299.7
		c0,0-0.2,354.2,0.3,353.6c0.5-0.6,0.9,197.7,0.9,440.8v441.8H1918.1H298.3v-155.3v-155.3L295.1,368.8z M276.9,1642.5l0,145.6
		c0,80.1,0.7,155.2,1.5,167l1.5,21.4h767.4h767.4v69.9v69.9h-298.3h-298.3v38.8v38.8h698.8h698.8v-38.8v-38.8h-297.5h-297.5l1.5-33
		c0.9-18.2,1.6-49.6,1.6-69.9l0-36.9h767.7h767.7v-490.3V996c0,0,1.2-363.4,0.6-630.4l-0.6-271.2H1918.1H276.9l0,137.2v137.2
		L276.9,1642.5z M1972.2,1978.2l30.3,1.7v68.2v68.2h-84.4h-84.4v-69.9v-69.9l54.1,0C1917.5,1976.5,1955.5,1977.3,1972.2,1978.2
		 M2594.3,2155.2v15.5h-677.4h-677.4v-15.5v-15.5h677.4h677.4V2155.2z"/>
</g>
</svg>
